<mxfile host="app.diagrams.net" agent="Mozilla/5.0 (Windows NT 10.0; Win64; x64) AppleWebKit/537.36 (KHTML, like Gecko) Chrome/131.0.0.0 Safari/537.36" version="26.0.3">
  <diagram name="第 1 页" id="6ry_pnS2vJJyaQvhrR7t">
    <mxGraphModel dx="1221" dy="725" grid="1" gridSize="10" guides="1" tooltips="1" connect="1" arrows="1" fold="1" page="1" pageScale="1" pageWidth="827" pageHeight="1169" math="0" shadow="0">
      <root>
        <mxCell id="0" />
        <mxCell id="1" parent="0" />
        <mxCell id="5bShoopTlFWPeDc6z4Nc-4" value="" style="edgeStyle=orthogonalEdgeStyle;rounded=0;orthogonalLoop=1;jettySize=auto;html=1;" edge="1" parent="1" source="5bShoopTlFWPeDc6z4Nc-1" target="5bShoopTlFWPeDc6z4Nc-2">
          <mxGeometry relative="1" as="geometry" />
        </mxCell>
        <mxCell id="5bShoopTlFWPeDc6z4Nc-1" value="并列" style="rounded=1;whiteSpace=wrap;html=1;" vertex="1" parent="1">
          <mxGeometry x="280" y="200" width="40" height="40" as="geometry" />
        </mxCell>
        <mxCell id="5bShoopTlFWPeDc6z4Nc-5" value="" style="edgeStyle=orthogonalEdgeStyle;rounded=0;orthogonalLoop=1;jettySize=auto;html=1;" edge="1" parent="1" source="5bShoopTlFWPeDc6z4Nc-2" target="5bShoopTlFWPeDc6z4Nc-3">
          <mxGeometry relative="1" as="geometry" />
        </mxCell>
        <mxCell id="5bShoopTlFWPeDc6z4Nc-2" value="递进" style="rounded=1;whiteSpace=wrap;html=1;" vertex="1" parent="1">
          <mxGeometry x="360" y="200" width="40" height="40" as="geometry" />
        </mxCell>
        <mxCell id="5bShoopTlFWPeDc6z4Nc-3" value="转折" style="rounded=1;whiteSpace=wrap;html=1;" vertex="1" parent="1">
          <mxGeometry x="440" y="200" width="40" height="40" as="geometry" />
        </mxCell>
        <mxCell id="5bShoopTlFWPeDc6z4Nc-6" value="反映思考丰富" style="text;html=1;align=center;verticalAlign=middle;whiteSpace=wrap;rounded=0;" vertex="1" parent="1">
          <mxGeometry x="280" y="130" width="80" height="30" as="geometry" />
        </mxCell>
        <mxCell id="5bShoopTlFWPeDc6z4Nc-7" value="反映思考深入" style="text;html=1;align=center;verticalAlign=middle;whiteSpace=wrap;rounded=0;" vertex="1" parent="1">
          <mxGeometry x="374" y="130" width="80" height="30" as="geometry" />
        </mxCell>
        <mxCell id="5bShoopTlFWPeDc6z4Nc-8" value="反映思考全面" style="text;html=1;align=center;verticalAlign=middle;whiteSpace=wrap;rounded=0;" vertex="1" parent="1">
          <mxGeometry x="470" y="130" width="80" height="30" as="geometry" />
        </mxCell>
      </root>
    </mxGraphModel>
  </diagram>
</mxfile>
